<svg width="156" height="48" viewBox="0 0 156 48" fill="none" xmlns="http://www.w3.org/2000/svg">
<path d="M53.0795 16.2727V9.90909H78.3636V16.2727H69.6136V39H61.8295V16.2727H53.0795ZM88.7969 39.3977C86.4295 39.3977 84.4029 38.929 82.7173 37.9915C81.0317 37.0445 79.7391 35.7282 78.8395 34.0426C77.9399 32.3475 77.4901 30.3826 77.4901 28.1477C77.4901 25.9129 77.9399 23.9527 78.8395 22.267C79.7391 20.572 81.0317 19.2557 82.7173 18.3182C84.4029 17.3712 86.4295 16.8977 88.7969 16.8977C91.1643 16.8977 93.1908 17.3712 94.8764 18.3182C96.562 19.2557 97.8546 20.572 98.7543 22.267C99.6539 23.9527 100.104 25.9129 100.104 28.1477C100.104 30.3826 99.6539 32.3475 98.7543 34.0426C97.8546 35.7282 96.562 37.0445 94.8764 37.9915C93.1908 38.929 91.1643 39.3977 88.7969 39.3977ZM88.8537 33.6023C89.5166 33.6023 90.0895 33.3797 90.5724 32.9347C91.0554 32.4896 91.4295 31.8551 91.6946 31.0312C91.9598 30.2074 92.0923 29.2273 92.0923 28.0909C92.0923 26.9451 91.9598 25.965 91.6946 25.1506C91.4295 24.3267 91.0554 23.6922 90.5724 23.2472C90.0895 22.8021 89.5166 22.5795 88.8537 22.5795C88.1529 22.5795 87.5516 22.8021 87.0497 23.2472C86.5478 23.6922 86.1643 24.3267 85.8991 25.1506C85.634 25.965 85.5014 26.9451 85.5014 28.0909C85.5014 29.2273 85.634 30.2074 85.8991 31.0312C86.1643 31.8551 86.5478 32.4896 87.0497 32.9347C87.5516 33.3797 88.1529 33.6023 88.8537 33.6023Z" fill="#4EA8DE"/>
<path d="M114.365 39H103.172V9.90909H114.251C117.244 9.90909 119.829 10.4915 122.007 11.6562C124.195 12.8116 125.88 14.4782 127.064 16.6562C128.257 18.8248 128.854 21.4242 128.854 24.4545C128.854 27.4848 128.262 30.089 127.078 32.267C125.894 34.4356 124.218 36.1023 122.05 37.267C119.881 38.4223 117.32 39 114.365 39ZM111.07 32.2955H114.081C115.52 32.2955 116.747 32.0634 117.76 31.5994C118.783 31.1354 119.559 30.3352 120.089 29.1989C120.629 28.0625 120.899 26.4811 120.899 24.4545C120.899 22.428 120.625 20.8466 120.075 19.7102C119.536 18.5739 118.74 17.7737 117.689 17.3097C116.647 16.8456 115.369 16.6136 113.854 16.6136H111.07V32.2955ZM143.133 39.3977C140.765 39.3977 138.739 38.929 137.053 37.9915C135.368 37.0445 134.075 35.7282 133.175 34.0426C132.276 32.3475 131.826 30.3826 131.826 28.1477C131.826 25.9129 132.276 23.9527 133.175 22.267C134.075 20.572 135.368 19.2557 137.053 18.3182C138.739 17.3712 140.765 16.8977 143.133 16.8977C145.5 16.8977 147.527 17.3712 149.212 18.3182C150.898 19.2557 152.191 20.572 153.09 22.267C153.99 23.9527 154.44 25.9129 154.44 28.1477C154.44 30.3826 153.99 32.3475 153.09 34.0426C152.191 35.7282 150.898 37.0445 149.212 37.9915C147.527 38.929 145.5 39.3977 143.133 39.3977ZM143.19 33.6023C143.853 33.6023 144.425 33.3797 144.908 32.9347C145.391 32.4896 145.765 31.8551 146.031 31.0312C146.296 30.2074 146.428 29.2273 146.428 28.0909C146.428 26.9451 146.296 25.965 146.031 25.1506C145.765 24.3267 145.391 23.6922 144.908 23.2472C144.425 22.8021 143.853 22.5795 143.19 22.5795C142.489 22.5795 141.888 22.8021 141.386 23.2472C140.884 23.6922 140.5 24.3267 140.235 25.1506C139.97 25.965 139.837 26.9451 139.837 28.0909C139.837 29.2273 139.97 30.2074 140.235 31.0312C140.5 31.8551 140.884 32.4896 141.386 32.9347C141.888 33.3797 142.489 33.6023 143.19 33.6023Z" fill="#5E60CE"/>
<g opacity="0.9">
<path d="M22.962 39.2335C30.8061 39.2335 37.165 32.8746 37.165 25.0305C37.165 17.1865 30.8061 10.8276 22.962 10.8276C15.1179 10.8276 8.75903 17.1865 8.75903 25.0305C8.75903 32.8746 15.1179 39.2335 22.962 39.2335Z" fill="#4EA8DE"/>
<path d="M22.9316 11.3142C25.6384 11.3142 28.2844 12.1168 30.5351 13.6207C32.7857 15.1245 34.5399 17.2619 35.5757 19.7627C36.6116 22.2635 36.8826 25.0153 36.3545 27.6701C35.8265 30.3249 34.523 32.7635 32.609 34.6775C30.695 36.5916 28.2564 37.895 25.6015 38.4231C22.9467 38.9512 20.1949 38.6801 17.6942 37.6443C15.1934 36.6084 13.0559 34.8543 11.5521 32.6036C10.0483 30.353 9.2456 27.7069 9.2456 25.0001C9.25962 21.3747 10.706 17.9018 13.2696 15.3382C15.8332 12.7746 19.3061 11.3282 22.9316 11.3142V11.3142ZM22.9316 8.27285C19.6262 8.28637 16.3989 9.27889 13.6571 11.1251C10.9153 12.9713 8.78201 15.5885 7.52645 18.6461C6.27088 21.7038 5.94938 25.0649 6.60251 28.3052C7.25564 31.5454 8.85413 34.5195 11.1962 36.8521C13.5382 39.1846 16.5188 40.7709 19.7617 41.4108C23.0046 42.0507 26.3644 41.7155 29.4169 40.4474C32.4695 39.1794 35.0779 37.0354 36.9129 34.2861C38.7479 31.5369 39.7272 28.3055 39.7273 25.0001C39.7273 22.7977 39.2923 20.6169 38.4474 18.583C37.6025 16.5491 36.3643 14.7021 34.8038 13.1479C33.2433 11.5937 31.3912 10.363 29.3538 9.52644C27.3165 8.68985 25.134 8.26384 22.9316 8.27285V8.27285Z" fill="#4EA8DE"/>
<path d="M29.5755 19.9058L21.2726 28.2086L16.5145 23.4506L14.9124 25.0527L21.2726 31.413L31.1776 21.5079L29.5755 19.9058Z" fill="white"/>
</g>
</svg>
